<svg width="31" height="17" viewBox="0 0 31 17" fill="none" xmlns="http://www.w3.org/2000/svg">
<path d="M22.157 0.283447C20.024 0.283447 8.66998 0.283447 8.15698 0.283447C3.73898 0.283447 0.156982 3.86545 0.156982 8.28345C0.156982 12.7014 3.73898 16.2834 8.15698 16.2834C8.66998 16.2834 20.024 16.2834 22.157 16.2834C26.575 16.2834 30.157 12.7014 30.157 8.28345C30.157 3.86545 26.575 0.283447 22.157 0.283447ZM22.157 14.2834C18.843 14.2834 16.157 11.5974 16.157 8.28345C16.157 4.96945 18.843 2.28345 22.157 2.28345C25.471 2.28345 28.157 4.96945 28.157 8.28345C28.157 11.5974 25.471 14.2834 22.157 14.2834Z" fill="black"/>
</svg>
