<svg width="27" height="27" viewBox="0 0 27 27" fill="none" xmlns="http://www.w3.org/2000/svg">
<path d="M6.74293 0.283447C6.48693 0.283447 6.2309 0.381416 6.0359 0.576416L0.449958 6.16235C0.0589577 6.55335 0.0589578 7.18642 0.449958 7.57642L6.24293 13.3694L7.65699 11.9553L2.57105 6.86938L6.74293 2.69751L8.0359 3.99048L6.74293 5.28345L8.15699 6.69751L9.44996 5.40454L10.5359 6.49048L8.44996 8.57642L9.74293 9.86939L13.2429 6.36938L11.95 5.07642L7.44996 0.576416C7.25496 0.381416 6.99893 0.283447 6.74293 0.283447ZM21.9832 1.28345C21.4719 1.28395 20.9596 1.48084 20.5691 1.87134L19.157 3.28345L23.157 7.28345L24.5691 5.87134C25.3501 5.09034 25.3521 3.82617 24.5711 3.04517L23.3953 1.86938C23.0048 1.47888 22.4944 1.28295 21.9832 1.28345ZM17.157 5.28345L3.38746 19.053L4.65699 19.7834L5.15699 21.2834L6.65699 21.7834L7.38746 23.053L21.157 9.28345L17.157 5.28345ZM20.0711 13.1975L16.5711 16.6975L17.864 17.9905L19.95 15.9045L21.0359 16.9905L19.7429 18.2834L21.157 19.6975L22.45 18.4045L23.7429 19.6975L19.5711 23.8694L14.4851 18.7834L13.0711 20.1975L18.864 25.9905C19.059 26.1855 19.3151 26.2834 19.5711 26.2834C19.8271 26.2834 20.0831 26.1855 20.2781 25.9905L25.864 20.4045C26.255 20.0145 26.255 19.3815 25.864 18.9905L21.364 14.4905L20.0711 13.1975ZM2.04957 22.176L1.1941 24.592C1.16929 24.6528 1.15668 24.7178 1.15699 24.7834C1.15699 24.9161 1.20967 25.0432 1.30344 25.137C1.3972 25.2308 1.52438 25.2834 1.65699 25.2834C1.71907 25.2838 1.78067 25.2725 1.83863 25.2502L4.26636 24.3928L2.04957 22.176Z" fill="black"/>
</svg>
