<svg width="31" height="31" viewBox="0 0 31 31" fill="none" xmlns="http://www.w3.org/2000/svg">
<path d="M16.7843 1.14113C16.0044 0.361196 14.7358 0.361196 13.9559 1.14113L9.71326 5.38378C8.93332 6.16371 8.93332 7.43226 9.71326 8.2122L13.9559 12.4548C14.7358 13.2348 16.0044 13.2348 16.7843 12.4548L21.027 8.2122C21.8069 7.43226 21.8069 6.16371 21.027 5.38378L16.7843 1.14113ZM25.2696 9.62642C24.4897 8.84648 23.2211 8.84648 22.4412 9.62642L18.1985 13.8691C17.4186 14.649 17.4186 15.9175 18.1985 16.6975L22.4412 20.9401C23.2211 21.7201 24.4897 21.7201 25.2696 20.9401L29.5123 16.6975C30.2922 15.9175 30.2922 14.649 29.5123 13.8691L25.2696 9.62642ZM8.29905 9.62642C7.51911 8.84648 6.25056 8.84648 5.47062 9.62642L1.22798 13.8691C0.448043 14.649 0.448043 15.9175 1.22798 16.6975L5.47062 20.9401C6.25056 21.7201 7.51911 21.7201 8.29905 20.9401L12.5417 16.6975C13.3216 15.9175 13.3216 14.649 12.5417 13.8691L8.29905 9.62642ZM16.7843 18.1117C16.0044 17.3318 14.7358 17.3318 13.9559 18.1117L9.71326 22.3543C8.93332 23.1343 8.93332 24.4028 9.71326 25.1828L13.9559 29.4254C14.7358 30.2053 16.0044 30.2053 16.7843 29.4254L21.027 25.1828C21.8069 24.4028 21.8069 23.1343 21.027 22.3543L16.7843 18.1117Z" fill="black"/>
</svg>
