<svg width="25" height="25" viewBox="0 0 25 25" fill="none" xmlns="http://www.w3.org/2000/svg">
<path d="M19.657 0.265869C18.5052 0.265869 17.3538 0.705729 16.4753 1.58423L13.1824 4.8772L12.864 4.55884C12.7708 4.46304 12.6594 4.3869 12.5363 4.3349C12.4132 4.28291 12.2809 4.25611 12.1472 4.2561C11.9483 4.25616 11.7539 4.31554 11.5889 4.42665C11.4239 4.53776 11.2957 4.69556 11.2209 4.87987C11.146 5.06419 11.1278 5.26663 11.1686 5.46134C11.2095 5.65604 11.3074 5.83415 11.45 5.9729L11.7429 6.26587L3.44996 14.5588C2.27318 15.7356 1.93629 17.0237 1.68629 18.0237C1.43629 19.0237 1.27318 19.7356 0.449957 20.5588C0.262491 20.7464 0.157181 21.0007 0.157181 21.2659C0.157181 21.531 0.262491 21.7854 0.449957 21.9729L2.44996 23.9729C2.6375 24.1604 2.89182 24.2657 3.15699 24.2657C3.42216 24.2657 3.67648 24.1604 3.86402 23.9729C4.68724 23.1497 5.39918 22.9866 6.39918 22.7366C7.39918 22.4866 8.68724 22.1497 9.86402 20.9729L18.157 12.6799L18.45 12.9729C18.5421 13.0689 18.6525 13.1455 18.7746 13.1983C18.8967 13.2511 19.0282 13.279 19.1612 13.2803C19.2942 13.2817 19.4262 13.2565 19.5494 13.2062C19.6726 13.1559 19.7845 13.0815 19.8786 12.9874C19.9726 12.8934 20.047 12.7815 20.0973 12.6583C20.1476 12.5351 20.1728 12.4031 20.1714 12.2701C20.1701 12.137 20.1422 12.0056 20.0894 11.8835C20.0366 11.7614 19.96 11.651 19.864 11.5588L19.5457 11.2405L22.8386 7.94751C24.5956 6.19051 24.5956 3.34123 22.8386 1.58423C21.9601 0.705729 20.8087 0.265869 19.657 0.265869ZM13.157 7.67993L16.7429 11.2659L8.44996 19.5588C7.62673 20.3821 6.9148 20.5452 5.9148 20.7952C5.14833 20.9868 4.21484 21.352 3.2898 21.9846L2.43824 21.1331C3.07084 20.208 3.43607 19.2745 3.62769 18.5081C3.87769 17.5081 4.0408 16.7961 4.86402 15.9729L13.157 7.67993Z" fill="black"/>
</svg>
