<svg width="19" height="25" viewBox="0 0 19 25" fill="none" xmlns="http://www.w3.org/2000/svg">
<path d="M9.14135 0.26587C8.84421 0.269054 8.5547 0.360415 8.30956 0.528366C8.06441 0.696316 7.87467 0.933289 7.7644 1.20923L1.7644 16.2092C1.75685 16.228 1.74969 16.2468 1.74291 16.2659H1.15697C1.02446 16.264 0.892899 16.2885 0.76993 16.3379C0.646962 16.3873 0.535041 16.4607 0.440671 16.5537C0.346302 16.6468 0.271365 16.7576 0.220218 16.8799C0.16907 17.0021 0.142731 17.1333 0.142731 17.2659C0.142731 17.3984 0.16907 17.5296 0.220218 17.6519C0.271365 17.7741 0.346302 17.885 0.440671 17.978C0.535041 18.0711 0.646962 18.1444 0.76993 18.1938C0.892899 18.2433 1.02446 18.2677 1.15697 18.2659H2.83275C3.03752 18.3092 3.24908 18.3092 3.45385 18.2659H5.15697C5.28949 18.2677 5.42105 18.2433 5.54402 18.1938C5.66698 18.1444 5.77891 18.0711 5.87328 17.978C5.96765 17.885 6.04258 17.7741 6.09373 17.6519C6.14488 17.5296 6.17122 17.3984 6.17122 17.2659C6.17122 17.1333 6.14488 17.0021 6.09373 16.8799C6.04258 16.7576 5.96765 16.6468 5.87328 16.5537C5.77891 16.4607 5.66698 16.3873 5.54402 16.3379C5.42105 16.2885 5.28949 16.264 5.15697 16.2659H4.97143L6.1726 13.2659H12.1413L13.3425 16.2659H13.157C13.0245 16.264 12.8929 16.2885 12.7699 16.3379C12.647 16.3873 12.535 16.4607 12.4407 16.5537C12.3463 16.6468 12.2714 16.7576 12.2202 16.8799C12.1691 17.0021 12.1427 17.1333 12.1427 17.2659C12.1427 17.3984 12.1691 17.5296 12.2202 17.6519C12.2714 17.7741 12.3463 17.885 12.4407 17.978C12.535 18.0711 12.647 18.1444 12.7699 18.1938C12.8929 18.2433 13.0245 18.2677 13.157 18.2659H14.8503C15.0576 18.3103 15.272 18.3103 15.4792 18.2659H17.157C17.2895 18.2677 17.421 18.2433 17.544 18.1938C17.667 18.1444 17.7789 18.0711 17.8733 17.978C17.9676 17.885 18.0426 17.7741 18.0937 17.6519C18.1449 17.5296 18.1712 17.3984 18.1712 17.2659C18.1712 17.1333 18.1449 17.0021 18.0937 16.8799C18.0426 16.7576 17.9676 16.6468 17.8733 16.5537C17.7789 16.4607 17.667 16.3873 17.544 16.3379C17.421 16.2885 17.2895 16.264 17.157 16.2659H16.571C16.5643 16.2468 16.5571 16.228 16.5496 16.2092L10.5496 1.20923C10.4373 0.928346 10.2428 0.687958 9.99145 0.519607C9.74014 0.351257 9.44382 0.262809 9.14135 0.26587ZM9.15697 5.80493L11.3406 11.2659H6.97338L9.15697 5.80493ZM0.156973 21.2659V24.2659H18.157V21.2659H0.156973Z" fill="black"/>
</svg>
